<svg width="474" height="474" viewBox="0 0 474 474" fill="none" xmlns="http://www.w3.org/2000/svg">
<path d="M60.3369 240.464L56.9285 239.328L57.0477 242.919C58.0628 273.483 66.841 303.286 82.5558 329.52C98.2705 355.754 120.405 377.556 146.873 392.873L150.625 395.044V390.709V355.5V354.464L149.893 353.732L109.795 313.635L109.795 313.635C107.486 311.326 106.188 308.195 106.188 304.93C106.188 304.93 106.188 304.93 106.188 304.93V285.926V285.169L105.768 284.539L81.4456 248.056L80.9698 247.342L80.156 247.071L60.3369 240.464ZM196.531 409.737L195.654 412.367L198.36 412.969C211.046 415.788 224 417.224 236.995 417.25H237.002C265.39 417.224 293.37 410.481 318.654 397.574C343.938 384.667 365.81 365.961 382.483 342.985L383.099 342.136L382.924 341.101L372.778 281.021L372.566 279.769L371.43 279.201L321.912 254.45L320.794 256.686L321.912 254.45C319.564 253.276 317.652 251.383 316.456 249.046C315.26 246.709 314.842 244.051 315.263 241.46L315.264 241.458L325.965 175.294C326.53 172.521 328.032 170.026 330.221 168.231C332.421 166.426 335.178 165.439 338.023 165.438H398.367H402.273L400.638 161.891C390.815 140.587 376.938 121.4 359.783 105.399L357.63 103.391L355.997 105.841L343.007 125.333C343.007 125.334 343.007 125.334 343.007 125.335C341.882 127.02 340.359 128.402 338.572 129.357C336.785 130.313 334.79 130.813 332.763 130.812H311.063C307.797 130.812 304.665 129.515 302.356 127.206C300.047 124.897 298.75 121.765 298.75 118.5V69.6187V67.8612L297.096 67.2663C273.794 58.885 249.001 55.4527 224.298 57.1883C199.595 58.924 175.525 65.7895 153.624 77.3469L151.175 78.6392L152.71 80.9438L168.782 105.073L169.524 106.188H170.862H211.478H212.929L213.649 104.928L225.073 84.9389L246.447 97.1523L190.392 195.262L190.063 195.839V196.503V234.5H165.438V207.375V204.875H162.938H139.445H138.409L137.677 205.607L106.171 237.113L104.722 238.562L105.858 240.267L124.344 268.011L125.086 269.125H126.425H199.45H199.451C201.477 269.125 203.473 269.625 205.26 270.58C207.046 271.536 208.569 272.918 209.694 274.603C209.694 274.603 209.695 274.604 209.695 274.604L230.595 305.961L230.596 305.963C231.704 307.624 232.393 309.53 232.601 311.516C232.809 313.502 232.53 315.509 231.79 317.364L205.054 384.196L205.027 384.264L205.004 384.334L196.531 409.737ZM123.178 66.6527C156.869 44.141 196.479 32.1253 236.999 32.125C291.316 32.1874 343.391 53.7925 381.799 92.2008C420.208 130.609 441.813 182.685 441.875 237.003C441.875 277.522 429.859 317.132 407.347 350.822C384.835 384.514 352.838 410.773 315.402 426.28C277.966 441.786 236.773 445.844 197.031 437.938C157.289 430.033 120.784 410.521 92.1316 381.868C63.4793 353.216 43.9669 316.711 36.0617 276.969C28.1566 237.227 32.2138 196.034 47.7203 158.598C63.2268 121.162 89.4861 89.1646 123.178 66.6527Z" fill="#109655" stroke="white" stroke-width="5"/>
</svg>
